Urbanist-Thin.ufo
<glyph name="numbersign" format="2">
  <advance width="1464"/>
  <unicode hex="0023"/>
  <outline>
    <contour>
      <point x="1368" y="968" type="line"/>
      <point x="1384" y="1026" type="line"/>
      <point x="1156" y="1026" type="line"/>
      <point x="1256" y="1400" type="line"/>
      <point x="1196" y="1400" type="line"/>
      <point x="1096" y="1026" type="line"/>
      <point x="544" y="1026" type="line"/>
      <point x="644" y="1400" type="line"/>
      <point x="584" y="1400" type="line"/>
      <point x="484" y="1026" type="line"/>
      <point x="254" y="1026" type="line"/>
      <point x="238" y="968" type="line"/>
      <point x="468" y="968" type="line"/>
      <point x="324" y="434" type="line"/>
      <point x="96" y="434" type="line"/>
      <point x="80" y="376" type="line"/>
      <point x="310" y="376" type="line"/>
      <point x="208" y="0" type="line"/>
      <point x="268" y="0" type="line"/>
      <point x="370" y="376" type="line"/>
      <point x="922" y="376" type="line"/>
      <point x="820" y="0" type="line"/>
      <point x="880" y="0" type="line"/>
      <point x="982" y="376" type="line"/>
      <point x="1210" y="376" type="line"/>
      <point x="1226" y="434" type="line"/>
      <point x="996" y="434" type="line"/>
      <point x="1140" y="968" type="line"/>
    </contour>
    <contour>
      <point x="936" y="434" type="line"/>
      <point x="384" y="434" type="line"/>
      <point x="528" y="968" type="line"/>
      <point x="1080" y="968" type="line"/>
    </contour>
  </outline>
</glyph>
<glyph name="plus" format="2">
  <advance width="1160"/>
  <unicode hex="002B"/>
  <outline>
    <contour>
      <point x="550" y="100" type="line"/>
      <point x="610" y="100" type="line"/>
      <point x="610" y="570" type="line"/>
      <point x="1080" y="570" type="line"/>
      <point x="1080" y="630" type="line"/>
      <point x="610" y="630" type="line"/>
      <point x="610" y="1100" type="line"/>
      <point x="550" y="1100" type="line"/>
      <point x="550" y="630" type="line"/>
      <point x="80" y="630" type="line"/>
      <point x="80" y="570" type="line"/>
      <point x="550" y="570" type="line"/>
    </contour>
  </outline>
</glyph>
<glyph name="zero" format="2">
  <advance width="1178"/>
  <unicode hex="0030"/>
  <outline>
    <contour>
      <point x="590" y="-26" type="curve" smooth="yes"/>
      <point x="930" y="-26"/>
      <point x="1118" y="300"/>
      <point x="1118" y="700" type="curve" smooth="yes"/>
      <point x="1118" y="1102"/>
      <point x="930" y="1426"/>
      <point x="590" y="1426" type="curve" smooth="yes"/>
      <point x="248" y="1426"/>
      <point x="60" y="1102"/>
      <point x="60" y="700" type="curve" smooth="yes"/>
      <point x="60" y="300"/>
      <point x="248" y="-26"/>
    </contour>
    <contour>
      <point x="590" y="34" type="curve" smooth="yes"/>
      <point x="286" y="34"/>
      <point x="120" y="332"/>
      <point x="120" y="700" type="curve" smooth="yes"/>
      <point x="120" y="1058"/>
      <point x="276" y="1366"/>
      <point x="590" y="1366" type="curve" smooth="yes"/>
      <point x="888" y="1366"/>
      <point x="1058" y="1082"/>
      <point x="1058" y="700" type="curve" smooth="yes"/>
      <point x="1058" y="336"/>
      <point x="894" y="34"/>
    </contour>
  </outline>
</glyph>
<glyph name="five" format="2">
  <advance width="1074"/>
  <unicode hex="0035"/>
  <outline>
    <contour>
      <point x="512" y="-26" type="curve" smooth="yes"/>
      <point x="754" y="-26"/>
      <point x="954" y="172"/>
      <point x="954" y="416" type="curve" smooth="yes"/>
      <point x="954" y="682"/>
      <point x="758" y="858"/>
      <point x="472" y="858" type="curve" smooth="yes"/>
      <point x="260" y="858" type="line"/>
      <point x="354" y="1340" type="line"/>
      <point x="936" y="1340" type="line"/>
      <point x="936" y="1400" type="line"/>
      <point x="306" y="1400" type="line"/>
      <point x="186" y="798" type="line"/>
      <point x="512" y="798" type="line" smooth="yes"/>
      <point x="722" y="798"/>
      <point x="894" y="626"/>
      <point x="894" y="416" type="curve" smooth="yes"/>
      <point x="894" y="206"/>
      <point x="722" y="34"/>
      <point x="512" y="34" type="curve" smooth="yes"/>
      <point x="300" y="34"/>
      <point x="130" y="206"/>
      <point x="130" y="416" type="curve"/>
      <point x="70" y="416" type="line"/>
      <point x="70" y="172"/>
      <point x="266" y="-26"/>
    </contour>
  </outline>
</glyph>
<glyph name="colon" format="2">
  <advance width="290"/>
  <unicode hex="003A"/>
  <outline>
    <contour>
      <point x="124" y="910" type="curve" smooth="yes"/>
      <point x="150" y="910"/>
      <point x="170" y="930"/>
      <point x="170" y="956" type="curve" smooth="yes"/>
      <point x="170" y="980"/>
      <point x="150" y="1000"/>
      <point x="124" y="1000" type="curve" smooth="yes"/>
      <point x="100" y="1000"/>
      <point x="80" y="980"/>
      <point x="80" y="956" type="curve" smooth="yes"/>
      <point x="80" y="930"/>
      <point x="100" y="910"/>
    </contour>
    <contour>
      <point x="124" y="-26" type="curve" smooth="yes"/>
      <point x="150" y="-26"/>
      <point x="170" y="-6"/>
      <point x="170" y="20" type="curve" smooth="yes"/>
      <point x="170" y="44"/>
      <point x="150" y="64"/>
      <point x="124" y="64" type="curve" smooth="yes"/>
      <point x="100" y="64"/>
      <point x="80" y="44"/>
      <point x="80" y="20" type="curve" smooth="yes"/>
      <point x="80" y="-6"/>
      <point x="100" y="-26"/>
    </contour>
  </outline>
</glyph>
<glyph name="semicolon" format="2">
  <advance width="334"/>
  <unicode hex="003B"/>
  <outline>
    <contour>
      <point x="80" y="-112" type="line"/>
      <point x="120" y="-112" type="line"/>
      <point x="202" y="226" type="line"/>
      <point x="142" y="226" type="line"/>
    </contour>
    <contour>
      <point x="170" y="910" type="curve" smooth="yes"/>
      <point x="194" y="910"/>
      <point x="214" y="930"/>
      <point x="214" y="954" type="curve" smooth="yes"/>
      <point x="214" y="980"/>
      <point x="194" y="1000"/>
      <point x="170" y="1000" type="curve" smooth="yes"/>
      <point x="144" y="1000"/>
      <point x="124" y="980"/>
      <point x="124" y="954" type="curve" smooth="yes"/>
      <point x="124" y="930"/>
      <point x="144" y="910"/>
    </contour>
  </outline>
</glyph>
<glyph name="C" format="2">
  <advance width="1398"/>
  <unicode hex="0043"/>
  <outline>
    <contour>
      <point x="748" y="-26" type="curve" smooth="yes"/>
      <point x="974" y="-26"/>
      <point x="1172" y="86"/>
      <point x="1298" y="262" type="curve"/>
      <point x="1246" y="290" type="line"/>
      <point x="1136" y="138"/>
      <point x="952" y="34"/>
      <point x="748" y="34" type="curve" smooth="yes"/>
      <point x="402" y="34"/>
      <point x="120" y="332"/>
      <point x="120" y="700" type="curve" smooth="yes"/>
      <point x="120" y="1058"/>
      <point x="396" y="1366"/>
      <point x="748" y="1366" type="curve" smooth="yes"/>
      <point x="942" y="1366"/>
      <point x="1132" y="1266"/>
      <point x="1246" y="1108" type="curve"/>
      <point x="1298" y="1136" type="line"/>
      <point x="1172" y="1312"/>
      <point x="974" y="1426"/>
      <point x="748" y="1426" type="curve" smooth="yes"/>
      <point x="368" y="1426"/>
      <point x="60" y="1100"/>
      <point x="60" y="700" type="curve" smooth="yes"/>
      <point x="60" y="298"/>
      <point x="368" y="-26"/>
    </contour>
  </outline>
</glyph>
<glyph name="E" format="2">
  <advance width="1052"/>
  <unicode hex="0045"/>
  <outline>
    <contour>
      <point x="120" y="0" type="line"/>
      <point x="952" y="0" type="line"/>
      <point x="952" y="60" type="line"/>
      <point x="180" y="60" type="line"/>
      <point x="180" y="720" type="line"/>
      <point x="836" y="720" type="line"/>
      <point x="836" y="780" type="line"/>
      <point x="180" y="780" type="line"/>
      <point x="180" y="1340" type="line"/>
      <point x="952" y="1340" type="line"/>
      <point x="952" y="1400" type="line"/>
      <point x="120" y="1400" type="line"/>
    </contour>
  </outline>
</glyph>
<glyph name="Q" format="2">
  <advance width="1538"/>
  <unicode hex="0051"/>
  <outline>
    <contour>
      <point x="1412" y="-10" type="line"/>
      <point x="1454" y="32" type="line"/>
      <point x="1276" y="208" type="line"/>
      <point x="1390" y="338"/>
      <point x="1458" y="510"/>
      <point x="1458" y="700" type="curve" smooth="yes"/>
      <point x="1458" y="1100"/>
      <point x="1150" y="1426"/>
      <point x="770" y="1426" type="curve" smooth="yes"/>
      <point x="388" y="1426"/>
      <point x="80" y="1100"/>
      <point x="80" y="700" type="curve" smooth="yes"/>
      <point x="80" y="300"/>
      <point x="388" y="-26"/>
      <point x="770" y="-26" type="curve" smooth="yes"/>
      <point x="948" y="-26"/>
      <point x="1112" y="46"/>
      <point x="1236" y="166" type="curve"/>
    </contour>
    <contour>
      <point x="770" y="34" type="curve" smooth="yes"/>
      <point x="424" y="34"/>
      <point x="140" y="334"/>
      <point x="140" y="700" type="curve" smooth="yes"/>
      <point x="140" y="1058"/>
      <point x="418" y="1366"/>
      <point x="770" y="1366" type="curve" smooth="yes"/>
      <point x="1114" y="1366"/>
      <point x="1398" y="1066"/>
      <point x="1398" y="700" type="curve" smooth="yes"/>
      <point x="1398" y="536"/>
      <point x="1340" y="376"/>
      <point x="1234" y="252" type="curve"/>
      <point x="966" y="520" type="line"/>
      <point x="924" y="476" type="line"/>
      <point x="1192" y="208" type="line"/>
      <point x="1082" y="98"/>
      <point x="924" y="34"/>
    </contour>
  </outline>
</glyph>
<glyph name="X" format="2">
  <advance width="1220"/>
  <unicode hex="0058"/>
  <outline>
    <contour>
      <point x="60" y="0" type="line"/>
      <point x="136" y="0" type="line"/>
      <point x="610" y="652" type="line"/>
      <point x="1086" y="0" type="line"/>
      <point x="1160" y="0" type="line"/>
      <point x="648" y="704" type="line"/>
      <point x="1156" y="1402" type="line"/>
      <point x="1082" y="1402" type="line"/>
      <point x="610" y="754" type="line"/>
      <point x="138" y="1402" type="line"/>
      <point x="64" y="1402" type="line"/>
      <point x="574" y="704" type="line"/>
    </contour>
  </outline>
</glyph>
<glyph name="bracketright" format="2">
  <advance width="460"/>
  <unicode hex="005D"/>
  <outline>
    <contour>
      <point x="100" y="-112" type="line"/>
      <point x="340" y="-112" type="line"/>
      <point x="340" y="1400" type="line"/>
      <point x="100" y="1400" type="line"/>
      <point x="100" y="1340" type="line"/>
      <point x="280" y="1340" type="line"/>
      <point x="280" y="-52" type="line"/>
      <point x="100" y="-52" type="line"/>
    </contour>
  </outline>
</glyph>
<glyph name="c" format="2">
  <advance width="1018"/>
  <unicode hex="0063"/>
  <outline>
    <contour>
      <point x="906" y="212" type="line"/>
      <point x="828" y="108"/>
      <point x="700" y="34"/>
      <point x="560" y="34" type="curve"/>
      <point x="318" y="34"/>
      <point x="120" y="242"/>
      <point x="120" y="500" type="curve"/>
      <point x="120" y="754"/>
      <point x="312" y="968"/>
      <point x="560" y="968" type="curve"/>
      <point x="688" y="968"/>
      <point x="820" y="904"/>
      <point x="906" y="790" type="curve"/>
      <point x="958" y="818" type="line"/>
      <point x="868" y="946"/>
      <point x="722" y="1028"/>
      <point x="560" y="1028" type="curve"/>
      <point x="284" y="1028"/>
      <point x="60" y="792"/>
      <point x="60" y="500" type="curve"/>
      <point x="60" y="210"/>
      <point x="284" y="-26"/>
      <point x="560" y="-26" type="curve"/>
      <point x="722" y="-26"/>
      <point x="868" y="56"/>
      <point x="958" y="184" type="curve"/>
    </contour>
  </outline>
</glyph>
<glyph name="f" format="2">
  <advance width="620"/>
  <unicode hex="0066"/>
  <outline>
    <contour>
      <point x="268" y="1300" type="line"/>
      <point x="268" y="1390"/>
      <point x="342" y="1464"/>
      <point x="432" y="1464" type="curve"/>
      <point x="476" y="1464"/>
      <point x="518" y="1446"/>
      <point x="548" y="1416" type="curve"/>
      <point x="590" y="1458" type="line"/>
      <point x="548" y="1500"/>
      <point x="492" y="1524"/>
      <point x="432" y="1524" type="curve"/>
      <point x="308" y="1524"/>
      <point x="208" y="1424"/>
      <point x="208" y="1300" type="curve"/>
      <point x="208" y="1000" type="line"/>
      <point x="50" y="1000" type="line"/>
      <point x="50" y="940" type="line"/>
      <point x="208" y="940" type="line"/>
      <point x="208" y="0" type="line"/>
      <point x="268" y="0" type="line"/>
      <point x="268" y="940" type="line"/>
      <point x="590" y="940" type="line"/>
      <point x="590" y="1000" type="line"/>
      <point x="268" y="1000" type="line"/>
    </contour>
  </outline>
</glyph>
<glyph name="j" format="2">
  <advance width="452"/>
  <unicode hex="006A"/>
  <outline>
    <contour>
      <point x="-80" y="-500" type="curve" smooth="yes"/>
      <point x="132" y="-500"/>
      <point x="286" y="-344"/>
      <point x="286" y="-148" type="curve"/>
      <point x="286" y="1000" type="line"/>
      <point x="226" y="1000" type="line"/>
      <point x="226" y="-148" type="line"/>
      <point x="226" y="-314"/>
      <point x="96" y="-440"/>
      <point x="-80" y="-440" type="curve"/>
      <point x="-80" y="-440"/>
      <point x="-80" y="-500"/>
    </contour>
    <contour>
      <point x="256" y="1200" type="curve"/>
      <point x="280" y="1200"/>
      <point x="302" y="1220"/>
      <point x="302" y="1244" type="curve"/>
      <point x="302" y="1268"/>
      <point x="280" y="1290"/>
      <point x="256" y="1290" type="curve"/>
      <point x="232" y="1290"/>
      <point x="212" y="1268"/>
      <point x="212" y="1244" type="curve"/>
      <point x="212" y="1220"/>
      <point x="232" y="1200"/>
    </contour>
  </outline>
</glyph>
<glyph name="q" format="2">
  <advance width="1194"/>
  <unicode hex="0071"/>
  <outline>
    <contour>
      <point x="606" y="-28" type="curve"/>
      <point x="800" y="-28"/>
      <point x="942" y="76"/>
      <point x="1014" y="232" type="curve"/>
      <point x="1014" y="-500" type="line"/>
      <point x="1074" y="-500" type="line"/>
      <point x="1074" y="1000" type="line"/>
      <point x="1014" y="1000" type="line"/>
      <point x="1014" y="766" type="line"/>
      <point x="942" y="922"/>
      <point x="800" y="1026"/>
      <point x="606" y="1026" type="curve"/>
      <point x="316" y="1026"/>
      <point x="80" y="790"/>
      <point x="80" y="500" type="curve"/>
      <point x="80" y="208"/>
      <point x="316" y="-28"/>
    </contour>
    <contour>
      <point x="606" y="966" type="curve"/>
      <point x="860" y="966"/>
      <point x="1010" y="760"/>
      <point x="1010" y="500" type="curve"/>
      <point x="1010" y="244"/>
      <point x="864" y="32"/>
      <point x="606" y="32" type="curve"/>
      <point x="356" y="32"/>
      <point x="140" y="236"/>
      <point x="140" y="500" type="curve"/>
      <point x="140" y="756"/>
      <point x="348" y="966"/>
    </contour>
  </outline>
</glyph>
<glyph name="s" format="2">
  <advance width="872"/>
  <unicode hex="0073"/>
  <outline>
    <contour>
      <point x="450" y="-20" type="curve"/>
      <point x="636" y="-20"/>
      <point x="808" y="88"/>
      <point x="808" y="258" type="curve"/>
      <point x="808" y="424"/>
      <point x="638" y="478"/>
      <point x="450" y="538" type="curve" smooth="yes"/>
      <point x="260" y="598"/>
      <point x="150" y="618"/>
      <point x="150" y="756" type="curve"/>
      <point x="150" y="890"/>
      <point x="292" y="974"/>
      <point x="450" y="974" type="curve"/>
      <point x="576" y="974"/>
      <point x="718" y="912"/>
      <point x="760" y="806" type="curve"/>
      <point x="812" y="836" type="line"/>
      <point x="764" y="952"/>
      <point x="616" y="1034"/>
      <point x="450" y="1034" type="curve"/>
      <point x="262" y="1034"/>
      <point x="90" y="926"/>
      <point x="90" y="756" type="curve"/>
      <point x="90" y="590"/>
      <point x="220" y="550"/>
      <point x="450" y="478" type="curve" smooth="yes"/>
      <point x="598" y="432"/>
      <point x="748" y="394"/>
      <point x="748" y="258" type="curve"/>
      <point x="748" y="128"/>
      <point x="606" y="40"/>
      <point x="450" y="40" type="curve"/>
      <point x="324" y="40"/>
      <point x="154" y="112"/>
      <point x="116" y="220" type="curve"/>
      <point x="60" y="196" type="line"/>
      <point x="102" y="76"/>
      <point x="278" y="-20"/>
    </contour>
  </outline>
</glyph>
<glyph name="t" format="2">
  <advance width="670"/>
  <unicode hex="0074"/>
  <outline>
    <contour>
      <point x="612" y="940" type="line"/>
      <point x="612" y="1000" type="line"/>
      <point x="338" y="1000" type="line"/>
      <point x="336" y="1314" type="line"/>
      <point x="276" y="1314" type="line"/>
      <point x="278" y="1000" type="line"/>
      <point x="72" y="1000" type="line"/>
      <point x="72" y="940" type="line"/>
      <point x="278" y="940" type="line"/>
      <point x="276" y="0" type="line"/>
      <point x="336" y="0" type="line"/>
      <point x="338" y="940" type="line"/>
    </contour>
  </outline>
</glyph>
<glyph name="w" format="2">
  <advance width="1564"/>
  <unicode hex="0077"/>
  <outline>
    <contour>
      <point x="464" y="0" type="line"/>
      <point x="780" y="940" type="line"/>
      <point x="1098" y="0" type="line"/>
      <point x="1168" y="0" type="line"/>
      <point x="1504" y="1002" type="line"/>
      <point x="1444" y="1002" type="line"/>
      <point x="1132" y="72" type="line"/>
      <point x="820" y="1002" type="line"/>
      <point x="744" y="1002" type="line"/>
      <point x="432" y="72" type="line"/>
      <point x="118" y="1002" type="line"/>
      <point x="60" y="1002" type="line"/>
      <point x="396" y="0" type="line"/>
    </contour>
  </outline>
</glyph>
<glyph name="braceleft" format="2">
  <advance width="790"/>
  <unicode hex="007B"/>
  <outline>
    <contour>
      <point x="642" y="-114" type="curve"/>
      <point x="690" y="-114" type="line"/>
      <point x="690" y="-54" type="line"/>
      <point x="642" y="-54" type="line"/>
      <point x="482" y="-54"/>
      <point x="352" y="76"/>
      <point x="352" y="236" type="curve"/>
      <point x="352" y="484" type="line"/>
      <point x="348" y="570"/>
      <point x="328" y="574"/>
      <point x="212" y="642" type="curve"/>
      <point x="324" y="708"/>
      <point x="348" y="716"/>
      <point x="352" y="802" type="curve"/>
      <point x="352" y="1050" type="line"/>
      <point x="352" y="1210"/>
      <point x="484" y="1340"/>
      <point x="642" y="1340" type="curve"/>
      <point x="690" y="1340" type="line"/>
      <point x="690" y="1400" type="line"/>
      <point x="642" y="1400" type="line"/>
      <point x="448" y="1400"/>
      <point x="292" y="1242"/>
      <point x="292" y="1050" type="curve"/>
      <point x="292" y="804" type="line"/>
      <point x="286" y="704"/>
      <point x="120" y="734"/>
      <point x="120" y="642" type="curve"/>
      <point x="120" y="558"/>
      <point x="286" y="582"/>
      <point x="292" y="482" type="curve"/>
      <point x="292" y="236" type="line"/>
      <point x="292" y="44"/>
      <point x="448" y="-114"/>
    </contour>
  </outline>
</glyph>
<glyph name="braceright" format="2">
  <advance width="790"/>
  <unicode hex="007D"/>
  <outline>
    <contour>
      <point x="100" y="-114" type="line"/>
      <point x="148" y="-114" type="line" smooth="yes"/>
      <point x="342" y="-114"/>
      <point x="498" y="44"/>
      <point x="498" y="236" type="curve" smooth="yes"/>
      <point x="498" y="482" type="line"/>
      <point x="504" y="582"/>
      <point x="670" y="558"/>
      <point x="670" y="642" type="curve" smooth="yes"/>
      <point x="670" y="734"/>
      <point x="504" y="704"/>
      <point x="498" y="804" type="curve"/>
      <point x="498" y="1050" type="line" smooth="yes"/>
      <point x="498" y="1242"/>
      <point x="342" y="1400"/>
      <point x="148" y="1400" type="curve" smooth="yes"/>
      <point x="100" y="1400" type="line"/>
      <point x="100" y="1340" type="line"/>
      <point x="148" y="1340" type="line" smooth="yes"/>
      <point x="306" y="1340"/>
      <point x="438" y="1210"/>
      <point x="438" y="1050" type="curve" smooth="yes"/>
      <point x="438" y="802" type="line" smooth="yes"/>
      <point x="442" y="716"/>
      <point x="466" y="708"/>
      <point x="578" y="642" type="curve"/>
      <point x="462" y="574"/>
      <point x="442" y="570"/>
      <point x="438" y="484" type="curve" smooth="yes"/>
      <point x="438" y="236" type="line" smooth="yes"/>
      <point x="438" y="76"/>
      <point x="308" y="-54"/>
      <point x="148" y="-54" type="curve" smooth="yes"/>
      <point x="100" y="-54" type="line"/>
    </contour>
  </outline>
</glyph>
<glyph name="sterling" format="2">
  <advance width="1134"/>
  <unicode hex="00A3"/>
  <outline>
    <contour>
      <point x="104" y="0" type="line"/>
      <point x="1054" y="0" type="line"/>
      <point x="1054" y="60" type="line"/>
      <point x="294" y="60" type="line"/>
      <point x="382" y="96"/>
      <point x="474" y="192"/>
      <point x="474" y="300" type="curve" smooth="yes"/>
      <point x="474" y="679"/>
      <point x="140" y="553"/>
      <point x="140" y="940" type="curve" smooth="yes"/>
      <point x="140" y="1174"/>
      <point x="332" y="1366"/>
      <point x="566" y="1366" type="curve" smooth="yes"/>
      <point x="802" y="1366"/>
      <point x="994" y="1174"/>
      <point x="994" y="940" type="curve"/>
      <point x="1054" y="940" type="line"/>
      <point x="1054" y="1208"/>
      <point x="836" y="1426"/>
      <point x="566" y="1426" type="curve" smooth="yes"/>
      <point x="298" y="1426"/>
      <point x="80" y="1208"/>
      <point x="80" y="940" type="curve" smooth="yes"/>
      <point x="80" y="547"/>
      <point x="414" y="634"/>
      <point x="414" y="300" type="curve" smooth="yes"/>
      <point x="414" y="156"/>
      <point x="272" y="60"/>
      <point x="104" y="60" type="curve"/>
    </contour>
    <contour>
      <point x="104" y="452" type="line"/>
      <point x="840" y="452" type="line"/>
      <point x="840" y="512" type="line"/>
      <point x="104" y="512" type="line"/>
    </contour>
  </outline>
</glyph>
<glyph name="section" format="2">
  <advance width="1056"/>
  <unicode hex="00A7"/>
  <outline>
    <contour>
      <point x="546" y="-424" type="curve" smooth="yes"/>
      <point x="734" y="-424"/>
      <point x="906" y="-316"/>
      <point x="906" y="-146" type="curve" smooth="yes"/>
      <point x="906" y="2"/>
      <point x="812" y="84"/>
      <point x="612" y="110" type="curve"/>
      <point x="798" y="148"/>
      <point x="936" y="314"/>
      <point x="936" y="498" type="curve" smooth="yes"/>
      <point x="936" y="752"/>
      <point x="772" y="868"/>
      <point x="510" y="928" type="curve" smooth="yes"/>
      <point x="316" y="972"/>
      <point x="210" y="1008"/>
      <point x="210" y="1146" type="curve" smooth="yes"/>
      <point x="210" y="1280"/>
      <point x="352" y="1364"/>
      <point x="510" y="1364" type="curve" smooth="yes"/>
      <point x="636" y="1364"/>
      <point x="778" y="1302"/>
      <point x="820" y="1196" type="curve"/>
      <point x="872" y="1226" type="line"/>
      <point x="824" y="1342"/>
      <point x="676" y="1424"/>
      <point x="510" y="1424" type="curve" smooth="yes"/>
      <point x="322" y="1424"/>
      <point x="150" y="1316"/>
      <point x="150" y="1146" type="curve" smooth="yes"/>
      <point x="150" y="996"/>
      <point x="242" y="914"/>
      <point x="444" y="888" type="curve"/>
      <point x="254" y="848"/>
      <point x="120" y="682"/>
      <point x="120" y="498" type="curve" smooth="yes"/>
      <point x="120" y="252"/>
      <point x="288" y="130"/>
      <point x="546" y="72" type="curve" smooth="yes"/>
      <point x="738" y="30"/>
      <point x="846" y="-8"/>
      <point x="846" y="-146" type="curve" smooth="yes"/>
      <point x="846" y="-280"/>
      <point x="704" y="-364"/>
      <point x="546" y="-364" type="curve" smooth="yes"/>
      <point x="420" y="-364"/>
      <point x="278" y="-302"/>
      <point x="236" y="-196" type="curve"/>
      <point x="184" y="-226" type="line"/>
      <point x="232" y="-342"/>
      <point x="380" y="-424"/>
    </contour>
    <contour>
      <point x="528" y="156" type="curve" smooth="yes"/>
      <point x="354" y="156"/>
      <point x="180" y="304"/>
      <point x="180" y="498" type="curve" smooth="yes"/>
      <point x="180" y="696"/>
      <point x="336" y="844"/>
      <point x="528" y="844" type="curve" smooth="yes"/>
      <point x="698" y="844"/>
      <point x="876" y="714"/>
      <point x="876" y="492" type="curve" smooth="yes"/>
      <point x="876" y="308"/>
      <point x="720" y="156"/>
    </contour>
  </outline>
</glyph>
<glyph name="plusminus" format="2">
  <advance width="1160"/>
  <unicode hex="00B1"/>
  <outline>
    <contour>
      <point x="550" y="300" type="line"/>
      <point x="610" y="300" type="line"/>
      <point x="610" y="770" type="line"/>
      <point x="1080" y="770" type="line"/>
      <point x="1080" y="830" type="line"/>
      <point x="610" y="830" type="line"/>
      <point x="610" y="1300" type="line"/>
      <point x="550" y="1300" type="line"/>
      <point x="550" y="830" type="line"/>
      <point x="80" y="830" type="line"/>
      <point x="80" y="770" type="line"/>
      <point x="550" y="770" type="line"/>
    </contour>
    <contour>
      <point x="80" y="2" type="line"/>
      <point x="1080" y="2" type="line"/>
      <point x="1080" y="62" type="line"/>
      <point x="80" y="62" type="line"/>
    </contour>
  </outline>
</glyph>
<glyph name="Eth" format="2">
  <advance width="1452"/>
  <unicode hex="00D0"/>
  <outline>
    <contour>
      <point x="228" y="0" type="line"/>
      <point x="692" y="0" type="line" smooth="yes"/>
      <point x="1078" y="0"/>
      <point x="1392" y="314"/>
      <point x="1392" y="700" type="curve" smooth="yes"/>
      <point x="1392" y="1086"/>
      <point x="1078" y="1400"/>
      <point x="692" y="1400" type="curve" smooth="yes"/>
      <point x="228" y="1400" type="line"/>
      <point x="228" y="780" type="line"/>
      <point x="100" y="780" type="line"/>
      <point x="100" y="720" type="line"/>
      <point x="228" y="720" type="line"/>
    </contour>
    <contour>
      <point x="288" y="60" type="line"/>
      <point x="288" y="720" type="line"/>
      <point x="686" y="720" type="line"/>
      <point x="686" y="780" type="line"/>
      <point x="288" y="780" type="line"/>
      <point x="288" y="1340" type="line"/>
      <point x="692" y="1340" type="line" smooth="yes"/>
      <point x="1036" y="1340"/>
      <point x="1332" y="1060"/>
      <point x="1332" y="700" type="curve" smooth="yes"/>
      <point x="1332" y="354"/>
      <point x="1052" y="60"/>
      <point x="692" y="60" type="curve" smooth="yes"/>
    </contour>
  </outline>
</glyph>
<glyph name="Oslash" format="2">
  <advance width="1540"/>
  <unicode hex="00D8"/>
  <outline>
    <contour>
      <point x="366" y="-62" type="line"/>
      <point x="438" y="64" type="line"/>
      <point x="538" y="8"/>
      <point x="650" y="-26"/>
      <point x="770" y="-26" type="curve" smooth="yes"/>
      <point x="1150" y="-26"/>
      <point x="1460" y="300"/>
      <point x="1460" y="700" type="curve" smooth="yes"/>
      <point x="1460" y="952"/>
      <point x="1338" y="1174"/>
      <point x="1154" y="1304" type="curve"/>
      <point x="1228" y="1432" type="line"/>
      <point x="1176" y="1462" type="line"/>
      <point x="1104" y="1336" type="line"/>
      <point x="1004" y="1394"/>
      <point x="892" y="1426"/>
      <point x="770" y="1426" type="curve" smooth="yes"/>
      <point x="390" y="1426"/>
      <point x="80" y="1100"/>
      <point x="80" y="700" type="curve" smooth="yes"/>
      <point x="80" y="450"/>
      <point x="204" y="228"/>
      <point x="388" y="96" type="curve"/>
      <point x="314" y="-32" type="line"/>
    </contour>
    <contour>
      <point x="418" y="150" type="line"/>
      <point x="250" y="270"/>
      <point x="140" y="472"/>
      <point x="140" y="700" type="curve" smooth="yes"/>
      <point x="140" y="1060"/>
      <point x="418" y="1366"/>
      <point x="770" y="1366" type="curve" smooth="yes"/>
      <point x="880" y="1366"/>
      <point x="984" y="1336"/>
      <point x="1074" y="1284" type="curve"/>
    </contour>
    <contour>
      <point x="770" y="34" type="curve" smooth="yes"/>
      <point x="662" y="34"/>
      <point x="558" y="64"/>
      <point x="468" y="116" type="curve"/>
      <point x="1124" y="1252" type="line"/>
      <point x="1290" y="1130"/>
      <point x="1400" y="928"/>
      <point x="1400" y="700" type="curve" smooth="yes"/>
      <point x="1400" y="340"/>
      <point x="1122" y="34"/>
    </contour>
  </outline>
</glyph>
<glyph name="Thorn" format="2">
  <advance width="1000"/>
  <unicode hex="00DE"/>
  <outline>
    <contour>
      <point x="120" y="0" type="line"/>
      <point x="180" y="0" type="line"/>
      <point x="180" y="300" type="line"/>
      <point x="528" y="300" type="line" smooth="yes"/>
      <point x="742" y="300"/>
      <point x="920" y="470"/>
      <point x="920" y="700" type="curve" smooth="yes"/>
      <point x="920" y="928"/>
      <point x="748" y="1100"/>
      <point x="528" y="1100" type="curve" smooth="yes"/>
      <point x="180" y="1100" type="line"/>
      <point x="180" y="1400" type="line"/>
      <point x="120" y="1400" type="line"/>
    </contour>
    <contour>
      <point x="180" y="360" type="line"/>
      <point x="180" y="1040" type="line"/>
      <point x="528" y="1040" type="line" smooth="yes"/>
      <point x="710" y="1040"/>
      <point x="860" y="896"/>
      <point x="860" y="700" type="curve" smooth="yes"/>
      <point x="860" y="504"/>
      <point x="710" y="360"/>
      <point x="528" y="360" type="curve" smooth="yes"/>
    </contour>
  </outline>
</glyph>
<glyph name="germandbls" format="2">
  <advance width="1010"/>
  <unicode hex="00DF"/>
  <outline>
    <contour>
      <point x="120" y="0" type="line"/>
      <point x="180" y="0" type="line"/>
      <point x="180" y="994" type="line" smooth="yes"/>
      <point x="180" y="1184"/>
      <point x="334" y="1338"/>
      <point x="524" y="1338" type="curve" smooth="yes"/>
      <point x="682" y="1338"/>
      <point x="812" y="1200"/>
      <point x="812" y="1030" type="curve" smooth="yes"/>
      <point x="812" y="860"/>
      <point x="682" y="722"/>
      <point x="524" y="722" type="curve" smooth="yes"/>
      <point x="496" y="722" type="line"/>
      <point x="496" y="662" type="line"/>
      <point x="590" y="662" type="line" smooth="yes"/>
      <point x="756" y="662"/>
      <point x="890" y="528"/>
      <point x="890" y="362" type="curve" smooth="yes"/>
      <point x="890" y="196"/>
      <point x="756" y="60"/>
      <point x="590" y="60" type="curve" smooth="yes"/>
      <point x="496" y="60" type="line"/>
      <point x="516" y="0" type="line"/>
      <point x="590" y="0" type="line" smooth="yes"/>
      <point x="788" y="0"/>
      <point x="950" y="162"/>
      <point x="950" y="362" type="curve" smooth="yes"/>
      <point x="950" y="526"/>
      <point x="842" y="664"/>
      <point x="692" y="708" type="curve"/>
      <point x="798" y="770"/>
      <point x="872" y="892"/>
      <point x="872" y="1030" type="curve" smooth="yes"/>
      <point x="872" y="1232"/>
      <point x="716" y="1398"/>
      <point x="524" y="1398" type="curve" smooth="yes"/>
      <point x="300" y="1398"/>
      <point x="120" y="1216"/>
      <point x="120" y="994" type="curve" smooth="yes"/>
    </contour>
  </outline>
</glyph>
<glyph name="OE" format="2">
  <advance width="2206"/>
  <unicode hex="0152"/>
  <outline>
    <contour>
      <point x="770" y="-26" type="curve" smooth="yes"/>
      <point x="1050" y="-26"/>
      <point x="1292" y="152"/>
      <point x="1400" y="404" type="curve"/>
      <point x="1400" y="0" type="line"/>
      <point x="2106" y="0" type="line"/>
      <point x="2106" y="60" type="line"/>
      <point x="1460" y="60" type="line"/>
      <point x="1460" y="670" type="line"/>
      <point x="2010" y="670" type="line"/>
      <point x="2010" y="730" type="line"/>
      <point x="1460" y="730" type="line"/>
      <point x="1460" y="1340" type="line"/>
      <point x="2106" y="1340" type="line"/>
      <point x="2106" y="1400" type="line"/>
      <point x="1400" y="1400" type="line"/>
      <point x="1400" y="996" type="line"/>
      <point x="1292" y="1248"/>
      <point x="1050" y="1426"/>
      <point x="770" y="1426" type="curve" smooth="yes"/>
      <point x="390" y="1426"/>
      <point x="80" y="1100"/>
      <point x="80" y="700" type="curve" smooth="yes"/>
      <point x="80" y="300"/>
      <point x="390" y="-26"/>
    </contour>
    <contour>
      <point x="770" y="34" type="curve" smooth="yes"/>
      <point x="422" y="34"/>
      <point x="140" y="334"/>
      <point x="140" y="700" type="curve" smooth="yes"/>
      <point x="140" y="1060"/>
      <point x="418" y="1366"/>
      <point x="770" y="1366" type="curve" smooth="yes"/>
      <point x="1118" y="1366"/>
      <point x="1400" y="1064"/>
      <point x="1400" y="700" type="curve" smooth="yes"/>
      <point x="1400" y="340"/>
      <point x="1122" y="34"/>
    </contour>
  </outline>
</glyph>
<glyph name="ogonek" format="2">
  <advance width="1064"/>
  <unicode hex="02DB"/>
  <outline>
    <contour>
      <point x="606" y="-352" type="curve" smooth="yes"/>
      <point x="636" y="-352" type="line"/>
      <point x="636" y="-292" type="line"/>
      <point x="606" y="-292" type="line" smooth="yes"/>
      <point x="450" y="-292"/>
      <point x="322" y="-164"/>
      <point x="322" y="-8" type="curve" smooth="yes"/>
      <point x="322" y="62" type="line"/>
      <point x="262" y="62" type="line"/>
      <point x="262" y="-8" type="line" smooth="yes"/>
      <point x="262" y="-198"/>
      <point x="416" y="-352"/>
    </contour>
  </outline>
</glyph>
<glyph name="dieresiscomb" format="2">
  <unicode hex="0308"/>
  <outline>
    <contour>
      <point x="448" y="1230" type="curve" smooth="yes"/>
      <point x="472" y="1230"/>
      <point x="494" y="1248"/>
      <point x="494" y="1274" type="curve" smooth="yes"/>
      <point x="494" y="1298"/>
      <point x="472" y="1320"/>
      <point x="448" y="1320" type="curve" smooth="yes"/>
      <point x="422" y="1320"/>
      <point x="400" y="1298"/>
      <point x="400" y="1274" type="curve" smooth="yes"/>
      <point x="400" y="1248"/>
      <point x="422" y="1230"/>
    </contour>
    <contour>
      <point x="700" y="1230" type="curve" smooth="yes"/>
      <point x="724" y="1230"/>
      <point x="746" y="1248"/>
      <point x="746" y="1274" type="curve" smooth="yes"/>
      <point x="746" y="1298"/>
      <point x="724" y="1320"/>
      <point x="700" y="1320" type="curve" smooth="yes"/>
      <point x="674" y="1320"/>
      <point x="652" y="1298"/>
      <point x="652" y="1274" type="curve" smooth="yes"/>
      <point x="652" y="1248"/>
      <point x="674" y="1230"/>
    </contour>
  </outline>
</glyph>
<glyph name="mu" format="2">
  <advance width="998"/>
  <unicode hex="03BC"/>
  <outline>
    <contour>
      <point x="80" y="-432" type="line"/>
      <point x="140" y="-432" type="line"/>
      <point x="140" y="208" type="line"/>
      <point x="212" y="70"/>
      <point x="342" y="-26"/>
      <point x="500" y="-26" type="curve" smooth="yes"/>
      <point x="648" y="-26"/>
      <point x="776" y="60"/>
      <point x="858" y="206" type="curve"/>
      <point x="858" y="0" type="line"/>
      <point x="918" y="0" type="line"/>
      <point x="918" y="1000" type="line"/>
      <point x="858" y="1000" type="line"/>
      <point x="858" y="452" type="line" smooth="yes"/>
      <point x="858" y="222"/>
      <point x="696" y="34"/>
      <point x="500" y="34" type="curve" smooth="yes"/>
      <point x="302" y="34"/>
      <point x="140" y="222"/>
      <point x="140" y="452" type="curve" smooth="yes"/>
      <point x="140" y="1000" type="line"/>
      <point x="80" y="1000" type="line"/>
    </contour>
  </outline>
</glyph>
<glyph name="quoteright" format="2">
  <advance width="222"/>
  <unicode hex="2019"/>
  <unicode hex="2032"/>
  <outline>
    <contour>
      <point x="40" y="878" type="line"/>
      <point x="80" y="878" type="line"/>
      <point x="162" y="1400" type="line"/>
      <point x="102" y="1400" type="line"/>
    </contour>
  </outline>
</glyph>
<glyph name="bullet" format="2">
  <advance width="280"/>
  <unicode hex="2022"/>
  <outline>
    <contour>
      <point x="138" y="540" type="curve" smooth="yes"/>
      <point x="174" y="540"/>
      <point x="200" y="566"/>
      <point x="200" y="602" type="curve" smooth="yes"/>
      <point x="200" y="634"/>
      <point x="174" y="660"/>
      <point x="138" y="660" type="curve" smooth="yes"/>
      <point x="106" y="660"/>
      <point x="80" y="634"/>
      <point x="80" y="602" type="curve" smooth="yes"/>
      <point x="80" y="566"/>
      <point x="106" y="540"/>
    </contour>
  </outline>
</glyph>
<glyph name="guilsinglleft" format="2">
  <advance width="600"/>
  <unicode hex="2039"/>
  <outline>
    <contour>
      <point x="420" y="261" type="line"/>
      <point x="500" y="261" type="line"/>
      <point x="200" y="601" type="line"/>
      <point x="500" y="939" type="line"/>
      <point x="420" y="939" type="line"/>
      <point x="120" y="601" type="line"/>
    </contour>
  </outline>
</glyph>
<glyph name="fivesuperior" format="2">
  <advance width="670"/>
  <unicode hex="2075"/>
  <outline>
    <contour>
      <point x="305" y="798" type="curve" smooth="yes"/>
      <point x="427" y="798"/>
      <point x="526" y="885"/>
      <point x="526" y="1007" type="curve" smooth="yes"/>
      <point x="526" y="1169"/>
      <point x="388" y="1246"/>
      <point x="209" y="1218" type="curve"/>
      <point x="221" y="1377" type="line"/>
      <point x="504" y="1377" type="line"/>
      <point x="504" y="1449" type="line"/>
      <point x="156" y="1449" type="line"/>
      <point x="127" y="1120" type="line"/>
      <point x="209" y="1146"/>
      <point x="233" y="1154"/>
      <point x="305" y="1154" type="curve" smooth="yes"/>
      <point x="386" y="1154"/>
      <point x="454" y="1089"/>
      <point x="454" y="1007" type="curve" smooth="yes"/>
      <point x="454" y="926"/>
      <point x="386" y="870"/>
      <point x="305" y="870" type="curve" smooth="yes"/>
      <point x="223" y="870"/>
      <point x="156" y="926"/>
      <point x="156" y="1007" type="curve"/>
      <point x="84" y="1007" type="line"/>
      <point x="84" y="885"/>
      <point x="182" y="798"/>
    </contour>
  </outline>
</glyph>
<glyph name="eightsuperior" format="2">
  <advance width="593"/>
  <unicode hex="2078"/>
  <outline>
    <contour>
      <point x="295" y="798" type="curve" smooth="yes"/>
      <point x="406" y="798"/>
      <point x="497" y="875"/>
      <point x="497" y="986" type="curve" smooth="yes"/>
      <point x="497" y="1055"/>
      <point x="461" y="1115"/>
      <point x="408" y="1151" type="curve"/>
      <point x="451" y="1185"/>
      <point x="480" y="1238"/>
      <point x="480" y="1295" type="curve" smooth="yes"/>
      <point x="480" y="1398"/>
      <point x="398" y="1468"/>
      <point x="295" y="1468" type="curve" smooth="yes"/>
      <point x="194" y="1468"/>
      <point x="113" y="1398"/>
      <point x="113" y="1295" type="curve" smooth="yes"/>
      <point x="113" y="1238"/>
      <point x="142" y="1185"/>
      <point x="185" y="1151" type="curve"/>
      <point x="132" y="1115"/>
      <point x="96" y="1055"/>
      <point x="96" y="986" type="curve" smooth="yes"/>
      <point x="96" y="875"/>
      <point x="187" y="798"/>
    </contour>
    <contour>
      <point x="295" y="870" type="curve" smooth="yes"/>
      <point x="226" y="870"/>
      <point x="168" y="916"/>
      <point x="168" y="986" type="curve" smooth="yes"/>
      <point x="168" y="1055"/>
      <point x="226" y="1113"/>
      <point x="295" y="1113" type="curve" smooth="yes"/>
      <point x="367" y="1113"/>
      <point x="425" y="1055"/>
      <point x="425" y="986" type="curve" smooth="yes"/>
      <point x="425" y="916"/>
      <point x="367" y="870"/>
    </contour>
    <contour>
      <point x="295" y="1185" type="curve" smooth="yes"/>
      <point x="235" y="1185"/>
      <point x="185" y="1235"/>
      <point x="185" y="1295" type="curve" smooth="yes"/>
      <point x="185" y="1358"/>
      <point x="235" y="1396"/>
      <point x="295" y="1396" type="curve" smooth="yes"/>
      <point x="358" y="1396"/>
      <point x="408" y="1358"/>
      <point x="408" y="1295" type="curve" smooth="yes"/>
      <point x="408" y="1235"/>
      <point x="358" y="1185"/>
    </contour>
  </outline>
</glyph>
<glyph name="twoinferior" format="2">
  <advance width="670"/>
  <unicode hex="2082"/>
  <outline>
    <contour>
      <point x="96" y="0" type="line"/>
      <point x="526" y="0" type="line"/>
      <point x="526" y="72" type="line"/>
      <point x="218" y="72" type="line"/>
      <point x="341" y="156"/>
      <point x="526" y="326"/>
      <point x="526" y="446" type="curve" smooth="yes"/>
      <point x="526" y="564"/>
      <point x="430" y="650"/>
      <point x="312" y="650" type="curve" smooth="yes"/>
      <point x="192" y="650"/>
      <point x="96" y="564"/>
      <point x="96" y="446" type="curve"/>
      <point x="168" y="446" type="line"/>
      <point x="168" y="526"/>
      <point x="233" y="578"/>
      <point x="312" y="578" type="curve" smooth="yes"/>
      <point x="391" y="578"/>
      <point x="454" y="526"/>
      <point x="454" y="446" type="curve" smooth="yes"/>
      <point x="454" y="331"/>
      <point x="194" y="139"/>
      <point x="96" y="74" type="curve"/>
    </contour>
  </outline>
</glyph>
<glyph name="fiveinferior" format="2">
  <advance width="670"/>
  <unicode hex="2085"/>
  <outline>
    <contour>
      <point x="305" y="-31" type="curve"/>
      <point x="427" y="-31"/>
      <point x="526" y="55"/>
      <point x="526" y="178" type="curve"/>
      <point x="526" y="298"/>
      <point x="427" y="396"/>
      <point x="305" y="396" type="curve"/>
      <point x="209" y="389" type="line"/>
      <point x="221" y="545" type="line"/>
      <point x="504" y="545" type="line"/>
      <point x="504" y="617" type="line"/>
      <point x="156" y="617" type="line"/>
      <point x="127" y="290" type="line"/>
      <point x="305" y="324" type="line"/>
      <point x="386" y="324"/>
      <point x="454" y="259"/>
      <point x="454" y="178" type="curve"/>
      <point x="454" y="96"/>
      <point x="386" y="41"/>
      <point x="305" y="41" type="curve"/>
      <point x="223" y="41"/>
      <point x="156" y="96"/>
      <point x="156" y="178" type="curve" smooth="yes"/>
      <point x="84" y="178" type="line" smooth="yes"/>
      <point x="84" y="55"/>
      <point x="182" y="-31"/>
    </contour>
  </outline>
</glyph>
<glyph name="euro" format="2">
  <advance width="1202"/>
  <unicode hex="20AC"/>
  <outline>
    <contour>
      <point x="1122" y="-14" type="curve"/>
      <point x="1122" y="46" type="line"/>
      <point x="786" y="-22"/>
      <point x="472" y="200"/>
      <point x="390" y="538" type="curve"/>
      <point x="768" y="538" type="line"/>
      <point x="768" y="598" type="line"/>
      <point x="380" y="598" type="line"/>
      <point x="380" y="802" type="line"/>
      <point x="768" y="802" type="line"/>
      <point x="768" y="862" type="line"/>
      <point x="390" y="862" type="line"/>
      <point x="472" y="1194"/>
      <point x="780" y="1424"/>
      <point x="1122" y="1356" type="curve"/>
      <point x="1122" y="1416" type="line"/>
      <point x="764" y="1488"/>
      <point x="412" y="1238"/>
      <point x="328" y="862" type="curve"/>
      <point x="80" y="862" type="line"/>
      <point x="80" y="802" type="line"/>
      <point x="318" y="802" type="line"/>
      <point x="318" y="598" type="line"/>
      <point x="80" y="598" type="line"/>
      <point x="80" y="538" type="line"/>
      <point x="328" y="538" type="line"/>
      <point x="408" y="168"/>
      <point x="756" y="-88"/>
    </contour>
  </outline>
</glyph>
<glyph name="rightArrow" format="2">
  <advance width="1342"/>
  <unicode hex="2192"/>
  <outline>
    <contour>
      <point x="794" y="284" type="line"/>
      <point x="1262" y="750" type="line"/>
      <point x="794" y="1216" type="line"/>
      <point x="752" y="1174" type="line"/>
      <point x="1146" y="780" type="line"/>
      <point x="80" y="780" type="line"/>
      <point x="80" y="720" type="line"/>
      <point x="1146" y="720" type="line"/>
      <point x="752" y="326" type="line"/>
    </contour>
  </outline>
</glyph>
<glyph name="southEastArrow" format="2">
  <advance width="1016"/>
  <unicode hex="2198"/>
  <outline>
    <contour>
      <point x="276" y="322" type="line"/>
      <point x="936" y="322" type="line"/>
      <point x="936" y="982" type="line"/>
      <point x="876" y="982" type="line"/>
      <point x="876" y="424" type="line"/>
      <point x="122" y="1178" type="line"/>
      <point x="80" y="1136" type="line"/>
      <point x="834" y="382" type="line"/>
      <point x="276" y="382" type="line"/>
    </contour>
  </outline>
</glyph>
<glyph name="minus" format="2">
  <advance width="1160"/>
  <unicode hex="2212"/>
  <outline>
    <contour>
      <point x="80" y="570" type="line"/>
      <point x="1080" y="570" type="line"/>
      <point x="1080" y="630" type="line"/>
      <point x="80" y="630" type="line"/>
    </contour>
  </outline>
</glyph>
<glyph name="greaterequal" format="2">
  <advance width="1160"/>
  <unicode hex="2265"/>
  <outline>
    <contour>
      <point x="80" y="348" type="line"/>
      <point x="1080" y="632" type="line"/>
      <point x="1080" y="726" type="line"/>
      <point x="80" y="1012" type="line"/>
      <point x="80" y="948" type="line"/>
      <point x="1026" y="680" type="line"/>
      <point x="80" y="410" type="line"/>
    </contour>
    <contour>
      <point x="80" y="0" type="line"/>
      <point x="1080" y="0" type="line"/>
      <point x="1080" y="60" type="line"/>
      <point x="80" y="60" type="line"/>
    </contour>
  </outline>
</glyph>
<glyph name="lozenge" format="2">
  <advance width="696"/>
  <unicode hex="25CA"/>
  <outline>
    <contour>
      <point x="328" y="0" type="line"/>
      <point x="368" y="0" type="line"/>
      <point x="636" y="702" type="line"/>
      <point x="370" y="1400" type="line"/>
      <point x="326" y="1400" type="line"/>
      <point x="60" y="702" type="line"/>
    </contour>
    <contour>
      <point x="348" y="134" type="line"/>
      <point x="124" y="702" type="line"/>
      <point x="348" y="1270" type="line"/>
      <point x="574" y="702" type="line"/>
    </contour>
  </outline>
</glyph>
